<svg width="1318" height="310" viewBox="0 0 1318 310" fill="none" xmlns="http://www.w3.org/2000/svg">
<path d="M429.4 16H513.4V44.8H463.8V65.2H506.2V94H463.8V117.2H515.4V146H429.4V16ZM563.733 148.4C557.733 148.4 552.399 147 547.733 144.2C543.199 141.4 539.733 137.667 537.333 133C534.933 128.333 533.733 123.2 533.733 117.6C533.733 107.067 537.999 98.8667 546.533 93C555.199 87.1333 569.066 83.2 588.133 81.2C587.733 77.6 586.399 75 584.133 73.4C581.866 71.6667 578.533 70.8 574.133 70.8C570.666 70.8 566.933 71.4667 562.933 72.8C558.933 74.1333 554.266 76.2667 548.933 79.2L536.933 56.8C551.599 48 566.266 43.6 580.933 43.6C608.666 43.6 622.533 59.2 622.533 90.4V146H594.533L592.133 136.4H591.333C582.399 144.4 573.199 148.4 563.733 148.4ZM575.733 122C578.266 122 580.399 121.467 582.133 120.4C583.999 119.2 585.999 117.467 588.133 115.2V101.6C573.733 103.733 566.533 108.133 566.533 114.8C566.533 117.067 567.333 118.867 568.933 120.2C570.533 121.4 572.799 122 575.733 122ZM675.759 148.4C669.359 148.4 662.559 147.133 655.359 144.6C648.293 141.933 642.159 138.533 636.959 134.4L652.159 113.2C661.226 119.867 669.359 123.2 676.559 123.2C680.159 123.2 682.693 122.733 684.159 121.8C685.759 120.733 686.559 119.2 686.559 117.2C686.559 115.2 685.493 113.6 683.359 112.4C681.226 111.2 677.559 109.6 672.359 107.6C671.693 107.333 670.959 107.067 670.159 106.8C669.359 106.4 668.426 106 667.359 105.6C650.559 98.9333 642.159 89.0667 642.159 76C642.159 66.2667 645.759 58.4667 652.959 52.6C660.293 46.6 669.893 43.6 681.759 43.6C689.226 43.6 695.893 44.8 701.759 47.2C707.626 49.6 713.226 52.8 718.559 56.8L703.359 77.2C695.626 71.6 688.826 68.8 682.959 68.8C677.093 68.8 674.159 70.6667 674.159 74.4C674.159 76.4 675.226 78 677.359 79.2C679.493 80.2667 683.093 81.7333 688.159 83.6C689.226 83.8667 690.826 84.4 692.959 85.2C700.426 88 706.559 91.6667 711.359 96.2C716.159 100.733 718.559 107.067 718.559 115.2C718.559 124.933 714.826 132.933 707.359 139.2C699.893 145.333 689.359 148.4 675.759 148.4ZM750.189 183.6C744.989 183.6 739.922 182.933 734.989 181.6L740.989 155.6C741.389 155.733 742.256 155.933 743.589 156.2C745.056 156.6 746.322 156.8 747.389 156.8C755.522 156.8 760.722 153.467 762.989 146.8L764.189 142.4L726.189 46H760.589L772.589 84.4C774.189 89.6 776.122 97 778.389 106.6C779.056 109.667 779.522 111.733 779.789 112.8H780.589C782.989 101.6 785.122 92.1333 786.989 84.4L796.989 46H829.789L796.189 144.4C792.589 153.867 788.789 161.4 784.789 167C780.922 172.6 776.189 176.733 770.589 179.4C765.122 182.2 758.322 183.6 750.189 183.6ZM846.588 16H883.388L902.988 69.2C903.921 71.8667 905.188 76 906.788 81.6L909.788 92H910.588L913.588 81.6C915.188 76 916.454 71.8667 917.388 69.2L936.188 16H972.988V146H941.788V107.6C941.788 102.667 942.188 96.3333 942.988 88.6C943.788 80.7333 944.654 73.4667 945.588 66.8L946.188 61.2H945.388L934.588 92.4L918.588 135.4H900.188L884.188 92.4L873.788 61.2H872.988L873.588 66.8C874.521 73.4667 875.388 80.7333 876.188 88.6C876.988 96.3333 877.388 102.667 877.388 107.6V146H846.588V16ZM1043.46 148.4C1034.79 148.4 1026.66 146.333 1019.06 142.2C1011.46 137.933 1005.33 131.867 1000.66 124C996.128 116 993.861 106.667 993.861 96C993.861 85.3333 996.128 76.0667 1000.66 68.2C1005.33 60.2 1011.46 54.1333 1019.06 50C1026.66 45.7333 1034.79 43.6 1043.46 43.6C1052.13 43.6 1060.26 45.7333 1067.86 50C1075.46 54.1333 1081.53 60.2 1086.06 68.2C1090.73 76.0667 1093.06 85.3333 1093.06 96C1093.06 106.667 1090.73 116 1086.06 124C1081.53 131.867 1075.46 137.933 1067.86 142.2C1060.26 146.333 1052.13 148.4 1043.46 148.4ZM1043.46 120.8C1053.06 120.8 1057.86 112.533 1057.86 96C1057.86 79.4667 1053.06 71.2 1043.46 71.2C1033.86 71.2 1029.06 79.4667 1029.06 96C1029.06 112.533 1033.86 120.8 1043.46 120.8ZM1099.82 46H1134.22L1145.02 89.6L1152.22 120.8H1153.02L1160.22 89.6L1171.02 46H1203.82L1172.22 146H1132.62L1099.82 46ZM1302.26 92C1302.26 97.8667 1301.79 102.667 1300.86 106.4H1243.26C1244.86 112.267 1247.79 116.4 1252.06 118.8C1256.46 121.2 1261.46 122.4 1267.06 122.4C1273.46 122.4 1280.26 120.4 1287.46 116.4L1298.66 136.8C1293.46 140.533 1287.52 143.4 1280.86 145.4C1274.32 147.4 1268.12 148.4 1262.26 148.4C1252.39 148.4 1243.52 146.333 1235.66 142.2C1227.92 138.067 1221.79 132.067 1217.26 124.2C1212.86 116.2 1210.66 106.8 1210.66 96C1210.66 85.6 1212.92 76.4667 1217.46 68.6C1221.99 60.6 1227.92 54.4667 1235.26 50.2C1242.59 45.8 1250.39 43.6 1258.66 43.6C1272.79 43.6 1283.59 48.1333 1291.06 57.2C1298.52 66.2667 1302.26 77.8667 1302.26 92ZM1273.06 84C1273.06 79.7333 1271.99 76.2667 1269.86 73.6C1267.72 70.9333 1264.26 69.6 1259.46 69.6C1255.72 69.6 1252.39 70.8 1249.46 73.2C1246.66 75.4667 1244.59 79.0667 1243.26 84H1273.06Z" fill="white"/>
<path d="M434.16 278V225.84H447.04L455.44 249.04C455.973 250.587 456.48 252.187 456.96 253.84C457.44 255.44 457.947 257.04 458.48 258.64H458.8C459.333 257.04 459.813 255.44 460.24 253.84C460.72 252.187 461.227 250.587 461.76 249.04L470 225.84H482.8V278H472.08V258.88C472.08 257.6 472.133 256.187 472.24 254.64C472.347 253.093 472.48 251.547 472.64 250C472.8 248.4 472.96 246.853 473.12 245.36C473.28 243.813 473.44 242.4 473.6 241.12H473.28L469.04 253.52L461.6 273.44H455.12L447.68 253.52L443.52 241.12H443.2C443.36 242.4 443.52 243.813 443.68 245.36C443.84 246.853 444 248.4 444.16 250C444.32 251.547 444.453 253.093 444.56 254.64C444.667 256.187 444.72 257.6 444.72 258.88V278H434.16ZM533.897 278.96C530.377 278.96 527.151 278.347 524.217 277.12C521.337 275.84 518.857 274.027 516.777 271.68C514.697 269.333 513.071 266.48 511.897 263.12C510.777 259.76 510.217 255.947 510.217 251.68C510.217 247.413 510.777 243.627 511.897 240.32C513.071 236.96 514.697 234.16 516.777 231.92C518.857 229.627 521.337 227.893 524.217 226.72C527.151 225.493 530.377 224.88 533.897 224.88C537.417 224.88 540.617 225.493 543.497 226.72C546.431 227.893 548.938 229.627 551.018 231.92C553.098 234.213 554.698 237.04 555.818 240.4C556.991 243.707 557.577 247.467 557.577 251.68C557.577 255.947 556.991 259.76 555.818 263.12C554.698 266.48 553.098 269.333 551.018 271.68C548.938 274.027 546.431 275.84 543.497 277.12C540.617 278.347 537.417 278.96 533.897 278.96ZM533.897 268.8C537.471 268.8 540.297 267.28 542.377 264.24C544.457 261.147 545.497 256.96 545.497 251.68C545.497 246.453 544.457 242.373 542.377 239.44C540.297 236.507 537.471 235.04 533.897 235.04C530.324 235.04 527.497 236.507 525.417 239.44C523.337 242.373 522.297 246.453 522.297 251.68C522.297 256.96 523.337 261.147 525.417 264.24C527.497 267.28 530.324 268.8 533.897 268.8ZM593.244 278L577.484 225.84H589.964L596.204 250.16C597.004 253.04 597.697 255.84 598.284 258.56C598.924 261.227 599.644 264 600.444 266.88H600.764C601.51 264 602.204 261.227 602.844 258.56C603.484 255.84 604.177 253.04 604.924 250.16L611.084 225.84H623.084L607.404 278H593.244ZM646.257 278V225.84H658.017V278H646.257ZM687.919 278V225.84H699.999L713.599 251.76L718.719 263.28H719.039C718.773 260.507 718.453 257.413 718.079 254C717.759 250.587 717.599 247.333 717.599 244.24V225.84H728.799V278H716.719L703.119 252L697.999 240.64H697.679C697.946 243.52 698.239 246.613 698.559 249.92C698.933 253.227 699.119 256.427 699.119 259.52V278H687.919ZM781.763 278.96C778.189 278.96 774.829 278.4 771.683 277.28C768.589 276.107 765.896 274.4 763.603 272.16C761.309 269.92 759.496 267.147 758.163 263.84C756.883 260.48 756.243 256.613 756.243 252.24C756.243 247.92 756.909 244.08 758.243 240.72C759.576 237.307 761.389 234.427 763.683 232.08C766.029 229.733 768.749 227.947 771.843 226.72C774.936 225.493 778.216 224.88 781.683 224.88C785.469 224.88 788.723 225.573 791.443 226.96C794.163 228.347 796.376 229.92 798.083 231.68L791.923 239.2C790.589 238.027 789.176 237.04 787.683 236.24C786.189 235.44 784.323 235.04 782.083 235.04C780.056 235.04 778.189 235.44 776.483 236.24C774.829 236.987 773.389 238.08 772.163 239.52C770.936 240.96 769.976 242.72 769.283 244.8C768.643 246.88 768.323 249.227 768.323 251.84C768.323 257.227 769.523 261.413 771.923 264.4C774.376 267.333 778.056 268.8 782.963 268.8C784.029 268.8 785.069 268.667 786.083 268.4C787.096 268.133 787.923 267.733 788.563 267.2V258.24H779.923V248.64H798.963V272.64C797.149 274.4 794.749 275.893 791.763 277.12C788.776 278.347 785.443 278.96 781.763 278.96ZM882.714 278.96C879.407 278.96 876.287 278.4 873.354 277.28C870.42 276.107 867.834 274.4 865.594 272.16C863.407 269.92 861.674 267.147 860.394 263.84C859.114 260.48 858.474 256.613 858.474 252.24C858.474 247.92 859.14 244.08 860.474 240.72C861.807 237.307 863.594 234.427 865.834 232.08C868.074 229.733 870.687 227.947 873.674 226.72C876.66 225.493 879.807 224.88 883.114 224.88C886.474 224.88 889.487 225.573 892.154 226.96C894.82 228.293 897.034 229.867 898.794 231.68L892.554 239.2C891.22 237.973 889.807 236.987 888.314 236.24C886.874 235.44 885.22 235.04 883.354 235.04C881.594 235.04 879.914 235.44 878.314 236.24C876.767 236.987 875.407 238.08 874.234 239.52C873.114 240.96 872.207 242.72 871.514 244.8C870.874 246.88 870.554 249.227 870.554 251.84C870.554 257.227 871.7 261.413 873.994 264.4C876.287 267.333 879.354 268.8 883.194 268.8C885.327 268.8 887.22 268.347 888.874 267.44C890.58 266.48 892.074 265.307 893.354 263.92L899.594 271.28C895.22 276.4 889.594 278.96 882.714 278.96ZM943.347 278.96C939.827 278.96 936.601 278.347 933.667 277.12C930.787 275.84 928.307 274.027 926.227 271.68C924.147 269.333 922.521 266.48 921.347 263.12C920.227 259.76 919.667 255.947 919.667 251.68C919.667 247.413 920.227 243.627 921.347 240.32C922.521 236.96 924.147 234.16 926.227 231.92C928.307 229.627 930.787 227.893 933.667 226.72C936.601 225.493 939.827 224.88 943.347 224.88C946.867 224.88 950.067 225.493 952.947 226.72C955.881 227.893 958.387 229.627 960.467 231.92C962.547 234.213 964.147 237.04 965.267 240.4C966.441 243.707 967.027 247.467 967.027 251.68C967.027 255.947 966.441 259.76 965.267 263.12C964.147 266.48 962.547 269.333 960.467 271.68C958.387 274.027 955.881 275.84 952.947 277.12C950.067 278.347 946.867 278.96 943.347 278.96ZM943.347 268.8C946.921 268.8 949.747 267.28 951.827 264.24C953.907 261.147 954.947 256.96 954.947 251.68C954.947 246.453 953.907 242.373 951.827 239.44C949.747 236.507 946.921 235.04 943.347 235.04C939.774 235.04 936.947 236.507 934.867 239.44C932.787 242.373 931.747 246.453 931.747 251.68C931.747 256.96 932.787 261.147 934.867 264.24C936.947 267.28 939.774 268.8 943.347 268.8ZM994.435 278V225.84H1007.32L1015.72 249.04C1016.25 250.587 1016.76 252.187 1017.24 253.84C1017.72 255.44 1018.22 257.04 1018.76 258.64H1019.08C1019.61 257.04 1020.09 255.44 1020.52 253.84C1021 252.187 1021.5 250.587 1022.04 249.04L1030.28 225.84H1043.08V278H1032.36V258.88C1032.36 257.6 1032.41 256.187 1032.52 254.64C1032.62 253.093 1032.76 251.547 1032.92 250C1033.08 248.4 1033.24 246.853 1033.4 245.36C1033.56 243.813 1033.72 242.4 1033.88 241.12H1033.56L1029.32 253.52L1021.88 273.44H1015.4L1007.96 253.52L1003.8 241.12H1003.48C1003.64 242.4 1003.8 243.813 1003.96 245.36C1004.12 246.853 1004.28 248.4 1004.44 250C1004.6 251.547 1004.73 253.093 1004.84 254.64C1004.94 256.187 1005 257.6 1005 258.88V278H994.435ZM1072.97 278V225.84H1090.89C1093.77 225.84 1096.47 226.133 1098.97 226.72C1101.48 227.253 1103.67 228.187 1105.53 229.52C1107.4 230.8 1108.87 232.533 1109.93 234.72C1111.05 236.853 1111.61 239.493 1111.61 242.64C1111.61 245.68 1111.05 248.32 1109.93 250.56C1108.87 252.8 1107.4 254.64 1105.53 256.08C1103.67 257.52 1101.51 258.587 1099.05 259.28C1096.6 259.973 1093.99 260.32 1091.21 260.32H1084.73V278H1072.97ZM1084.73 250.96H1090.49C1096.89 250.96 1100.09 248.187 1100.09 242.64C1100.09 239.92 1099.24 238 1097.53 236.88C1095.83 235.76 1093.37 235.2 1090.17 235.2H1084.73V250.96ZM1146.48 251.6L1145.2 256.4H1156.32L1155.12 251.6C1154.38 248.987 1153.66 246.213 1152.96 243.28C1152.27 240.347 1151.58 237.52 1150.88 234.8H1150.56C1149.92 237.573 1149.26 240.427 1148.56 243.36C1147.92 246.24 1147.23 248.987 1146.48 251.6ZM1127.6 278L1143.92 225.84H1158.08L1174.4 278H1161.92L1158.72 265.6H1142.8L1139.6 278H1127.6ZM1197.7 278V225.84H1209.78L1223.38 251.76L1228.5 263.28H1228.82C1228.56 260.507 1228.24 257.413 1227.86 254C1227.54 250.587 1227.38 247.333 1227.38 244.24V225.84H1238.58V278H1226.5L1212.9 252L1207.78 240.64H1207.46C1207.73 243.52 1208.02 246.613 1208.34 249.92C1208.72 253.227 1208.9 256.427 1208.9 259.52V278H1197.7ZM1277.47 278V259.44L1261.71 225.84H1274.35L1278.99 237.84C1279.73 239.813 1280.43 241.733 1281.07 243.6C1281.76 245.413 1282.48 247.333 1283.23 249.36H1283.55C1284.29 247.333 1285.01 245.413 1285.71 243.6C1286.45 241.733 1287.2 239.813 1287.95 237.84L1292.67 225.84H1304.99L1289.23 259.44V278H1277.47Z" fill="white" fill-opacity="0.32"/>
<path d="M25.9343 226.764C27.1557 223.455 30.8267 221.763 34.1352 222.984L100.538 247.486C103.847 248.706 105.539 252.378 104.318 255.686C103.366 258.266 100.925 259.863 98.3271 259.863C97.5934 259.863 96.8465 259.735 96.1172 259.466L29.7142 234.965C26.4057 233.744 24.7136 230.072 25.9343 226.764Z" fill="#F9C649"/>
<path d="M110.594 258.003C111.815 254.694 115.487 253.001 118.795 254.222L121.607 255.26C124.915 256.48 126.608 260.152 125.387 263.46C124.436 266.039 121.994 267.637 119.396 267.637C118.663 267.637 117.916 267.509 117.186 267.24L114.374 266.203C111.066 264.982 109.374 261.311 110.594 258.003Z" fill="#F9C649"/>
<path d="M25.9343 200.746C27.1557 197.437 30.8267 195.747 34.1352 196.966L86.6111 216.329C89.9196 217.55 91.6118 221.221 90.3911 224.53C89.4389 227.109 86.998 228.706 84.4001 228.706C83.6664 228.706 82.9195 228.578 82.1902 228.31L29.7142 208.947C26.4057 207.726 24.7136 204.055 25.9343 200.746Z" fill="#F9C649"/>
<path d="M25.9343 174.998C27.1557 171.69 30.8267 169.999 34.1352 171.219L86.6111 190.581C89.9196 191.802 91.6118 195.474 90.3911 198.782C89.4389 201.361 86.998 202.958 84.4001 202.958C83.6664 202.958 82.9195 202.831 82.1902 202.562L29.7142 183.199C26.4057 181.979 24.7136 178.307 25.9343 174.998Z" fill="#F9C649"/>
<path d="M4.17429 58.1717L158.05 1.39439C159.477 0.868536 161.044 0.868536 162.47 1.39439L316.346 58.1717L316.348 58.1767C316.852 58.3633 317.336 58.6099 317.787 58.9236C319.5 60.118 320.521 62.0743 320.521 64.1621V246.838C320.521 249.512 318.855 251.902 316.347 252.828L162.471 309.606C161.754 309.87 161.006 310 160.261 310C159.509 310 158.761 309.864 158.053 309.602L158.05 309.606L4.17429 252.828C1.66583 251.902 0 249.512 0 246.838V64.1621C0 61.4877 1.66583 59.0976 4.17429 58.1717ZM166.645 294.454L307.752 242.388V73.3239L279.02 83.9261V161.288C279.02 163.962 277.354 166.353 274.846 167.279L205.889 192.723C205.172 192.988 204.424 193.117 203.679 193.117C202.391 193.117 201.114 192.727 200.028 191.971C198.315 190.777 197.294 188.82 197.294 186.733V114.081L166.647 125.39V294.454H166.645ZM210.063 109.369V177.57L266.25 156.837V88.6369L210.063 109.369ZM254.19 79.4244L203.678 60.786L153.166 79.4244L203.678 98.0628L254.19 79.4244ZM160.261 114.134L185.302 104.894L132.51 85.4142C130.002 84.4883 128.336 82.0981 128.336 79.4238C128.336 76.7494 130.002 74.3593 132.51 73.4334L201.468 47.9895C202.894 47.4637 204.461 47.4637 205.889 47.9895L272.704 72.6446L295.691 64.1621L160.261 14.1908L24.8298 64.1627L160.261 114.134ZM12.7695 242.388L153.875 294.453V125.39L12.7695 73.3239V242.388Z" fill="#F9C649"/>
</svg>
