<svg width="512" height="512" viewBox="0 0 512 512" fill="none" xmlns="http://www.w3.org/2000/svg">
<path d="M332.8 349.867H179.2C169.774 349.867 162.133 357.508 162.133 366.933V452.267C162.133 461.692 169.774 469.333 179.2 469.333H332.8C342.226 469.333 349.867 461.692 349.867 452.267V366.933C349.867 357.508 342.226 349.867 332.8 349.867ZM179.2 452.267V366.933H332.8V452.267H179.2Z" fill="#5C524B"/>
<path d="M201.557 400.384C202.583 400.821 203.685 401.053 204.8 401.067C207.07 401.09 209.254 400.198 210.859 398.593C212.465 396.987 213.356 394.804 213.333 392.533C213.363 391.414 213.129 390.303 212.651 389.291C212.218 388.257 211.612 387.305 210.859 386.475C208.405 384.053 204.735 383.346 201.557 384.683C200.513 385.095 199.557 385.703 198.741 386.475C197.988 387.305 197.382 388.257 196.949 389.291C196.512 390.317 196.28 391.418 196.267 392.533C196.3 394.792 197.183 396.956 198.741 398.592C199.571 399.345 200.524 399.951 201.557 400.384Z" fill="#5C524B"/>
<path d="M307.2 384H238.933C234.221 384 230.4 387.821 230.4 392.533C230.4 397.246 234.221 401.067 238.933 401.067H307.2C311.913 401.067 315.733 397.246 315.733 392.533C315.733 387.821 311.913 384 307.2 384Z" fill="#5C524B"/>
<path d="M307.2 418.133H281.6C276.887 418.133 273.067 421.954 273.067 426.667C273.067 431.379 276.887 435.2 281.6 435.2H307.2C311.913 435.2 315.733 431.379 315.733 426.667C315.733 421.954 311.913 418.133 307.2 418.133Z" fill="#5C524B"/>
<path d="M247.467 418.133H204.8C200.087 418.133 196.267 421.954 196.267 426.667C196.267 431.379 200.087 435.2 204.8 435.2H247.467C252.179 435.2 256 431.379 256 426.667C256 421.954 252.179 418.133 247.467 418.133Z" fill="#5C524B"/>
<path d="M162.133 221.867H315.733C325.159 221.867 332.8 214.226 332.8 204.8V119.467C332.8 110.041 325.159 102.4 315.733 102.4H162.133C152.708 102.4 145.067 110.041 145.067 119.467V204.8C145.067 214.226 152.708 221.867 162.133 221.867ZM162.133 119.467H315.733V204.8H162.133V119.467Z" fill="#5C524B"/>
<path d="M184.491 152.917C185.517 153.355 186.618 153.587 187.733 153.6C190.003 153.623 192.187 152.731 193.793 151.126C195.398 149.521 196.29 147.337 196.267 145.067C196.296 143.947 196.062 142.837 195.584 141.824C195.151 140.79 194.545 139.838 193.792 139.008C191.338 136.587 187.668 135.88 184.491 137.216C183.446 137.628 182.49 138.237 181.675 139.008C180.922 139.838 180.316 140.79 179.883 141.824C179.445 142.85 179.213 143.952 179.2 145.067C179.233 147.326 180.117 149.489 181.675 151.125C182.505 151.878 183.457 152.484 184.491 152.917Z" fill="#5C524B"/>
<path d="M290.133 136.533H221.867C217.154 136.533 213.333 140.354 213.333 145.067C213.333 149.779 217.154 153.6 221.867 153.6H290.133C294.846 153.6 298.667 149.779 298.667 145.067C298.667 140.354 294.846 136.533 290.133 136.533Z" fill="#5C524B"/>
<path d="M290.133 170.667H264.533C259.821 170.667 256 174.487 256 179.2C256 183.913 259.821 187.733 264.533 187.733H290.133C294.846 187.733 298.667 183.913 298.667 179.2C298.667 174.487 294.846 170.667 290.133 170.667Z" fill="#5C524B"/>
<path d="M230.4 170.667H187.733C183.02 170.667 179.2 174.487 179.2 179.2C179.2 183.913 183.02 187.733 187.733 187.733H230.4C235.113 187.733 238.933 183.913 238.933 179.2C238.933 174.487 235.113 170.667 230.4 170.667Z" fill="#5C524B"/>
<path d="M474.394 303.036C471.913 298.637 468.183 295.073 463.676 292.796L460.8 291.388V273.067C460.751 261.532 452.994 251.455 441.856 248.457C443.087 245.432 443.724 242.199 443.733 238.933V25.6C443.733 11.4615 432.272 0 418.133 0H59.7333C45.5948 0 34.1333 11.4615 34.1333 25.6V238.933C34.1827 250.468 41.9395 260.545 53.0773 263.543C51.8467 266.568 51.2094 269.801 51.2 273.067V291.388L48.2304 292.873C43.855 295.074 40.2207 298.509 37.7771 302.754L18.7733 333.79C6.48923 353.896 -0.007083 377.002 5.79527e-06 400.563V452.267C0.028218 475.819 19.1142 494.905 42.6667 494.933H52.7701C56.3734 505.125 65.9901 511.955 76.8 512H435.2C446.01 511.955 455.627 505.125 459.23 494.933H469.333C492.886 494.905 511.972 475.819 512 452.267V400.563C512.007 377.002 505.511 353.896 493.227 333.79L474.394 303.036ZM324.267 17.0667V68.2667H153.6V17.0667H324.267ZM51.2 25.6C51.2 20.8872 55.0205 17.0667 59.7333 17.0667H136.533V76.8C136.533 81.5128 140.354 85.3333 145.067 85.3333H332.8C337.513 85.3333 341.333 81.5128 341.333 76.8V17.0667H418.133C422.846 17.0667 426.667 20.8872 426.667 25.6V238.933C426.667 243.646 422.846 247.467 418.133 247.467H59.7333C55.0205 247.467 51.2 243.646 51.2 238.933V25.6ZM170.667 264.533H341.333V315.733H170.667V264.533ZM17.0667 452.267V400.563C17.066 380.14 22.7031 360.114 33.3568 342.69L52.5141 311.356C53.3094 309.957 54.4957 308.821 55.9275 308.087L62.9419 304.58C63.0211 304.548 63.098 304.511 63.1723 304.469L90.0864 290.987C91.2464 290.417 92.5231 290.125 93.8155 290.133C97.0624 290.15 100.027 291.982 101.495 294.878C103.578 299.105 101.84 304.221 97.6128 306.304L68.5995 320.811C66.9368 321.636 65.5887 322.981 64.7595 324.642L54.0928 346.061C52.7706 348.714 52.9202 351.864 54.4879 354.38C56.0557 356.896 58.8169 358.418 61.7813 358.4H110.933C113.233 358.393 115.432 359.338 117.009 361.011C118.601 362.568 119.489 364.707 119.467 366.933C119.467 371.646 115.646 375.467 110.933 375.467H76.8C72.0872 375.467 68.2667 379.287 68.2667 384C68.2667 388.713 72.0872 392.533 76.8 392.533H128C130.299 392.526 132.499 393.471 134.076 395.145C135.864 396.894 136.757 399.363 136.499 401.852C135.753 406.45 131.699 409.772 127.044 409.6H76.8C72.0872 409.6 68.2667 413.421 68.2667 418.133C68.2667 422.846 72.0872 426.667 76.8 426.667H110.933C113.233 426.659 115.432 427.605 117.009 429.278C118.798 431.027 119.69 433.497 119.433 435.985C118.687 440.583 114.633 443.905 109.978 443.733H76.8C72.0872 443.733 68.2667 447.554 68.2667 452.267C68.2667 456.98 72.0872 460.8 76.8 460.8H93.8667C96.1659 460.793 98.3655 461.738 99.9424 463.411C101.731 465.16 102.623 467.63 102.366 470.118C101.62 474.716 97.5659 478.039 92.9109 477.867H42.6667C28.5282 477.867 17.0667 466.405 17.0667 452.267ZM92.9109 494.933C106.432 495.116 117.88 485.001 119.364 471.561C119.715 467.529 119.11 463.47 117.598 459.716C124.663 457.856 130.585 453.045 133.853 446.51C137.12 439.976 137.416 432.351 134.665 425.583C144.93 422.736 152.403 413.891 153.498 403.294C154.487 390.98 146.619 379.69 134.724 376.354C135.916 373.356 136.529 370.16 136.533 366.933C136.463 352.824 125.043 341.403 110.933 341.333H75.5627L78.8139 334.814L105.267 321.587C111.356 318.562 115.991 313.239 118.15 306.793C120.31 300.346 119.816 293.306 116.779 287.223C110.431 274.633 95.1189 269.513 82.4747 275.755L68.2667 282.854V273.067C68.2667 268.354 72.0872 264.533 76.8 264.533H153.6V324.267C153.6 328.98 157.421 332.8 162.133 332.8H349.867C354.58 332.8 358.4 328.98 358.4 324.267V264.533H435.2C439.913 264.533 443.733 268.354 443.733 273.067V282.854L429.542 275.755C416.885 269.502 401.554 274.64 395.221 287.258C388.926 299.905 394.067 315.261 406.707 321.57L433.161 334.814L436.412 341.333H401.067C386.957 341.403 375.537 352.824 375.467 366.933C375.47 370.147 376.077 373.331 377.259 376.32C372.985 377.454 369.098 379.724 366.012 382.891C360.573 388.206 357.812 395.685 358.494 403.26C359.585 413.861 367.064 422.709 377.336 425.549C374.578 432.316 374.871 439.944 378.139 446.48C381.408 453.016 387.334 457.827 394.402 459.682C392.886 463.435 392.278 467.494 392.627 471.526C394.095 484.983 405.553 495.119 419.089 494.933H92.9109ZM494.933 452.267C494.933 466.405 483.472 477.867 469.333 477.867H419.089C414.424 478.057 410.351 474.735 409.6 470.127C409.346 467.565 410.291 465.029 412.16 463.258C413.729 461.652 415.889 460.764 418.133 460.8H435.2C439.913 460.8 443.733 456.98 443.733 452.267C443.733 447.554 439.913 443.733 435.2 443.733H402.022C397.357 443.924 393.285 440.602 392.533 435.994C392.279 433.431 393.224 430.895 395.093 429.124C396.662 427.519 398.822 426.63 401.067 426.667H435.2C439.913 426.667 443.733 422.846 443.733 418.133C443.733 413.421 439.913 409.6 435.2 409.6H384.956C380.288 409.79 376.214 406.463 375.467 401.852C375.224 399.304 376.169 396.786 378.027 395.025C379.59 393.407 381.751 392.506 384 392.533H435.2C439.913 392.533 443.733 388.713 443.733 384C443.733 379.287 439.913 375.467 435.2 375.467H401.067C396.354 375.467 392.533 371.646 392.533 366.933C392.526 364.634 393.471 362.434 395.145 360.858C396.701 359.265 398.84 358.378 401.067 358.4H450.219C453.182 358.415 455.94 356.891 457.506 354.376C459.071 351.86 459.22 348.713 457.899 346.061L447.232 324.642C446.403 322.981 445.055 321.636 443.392 320.811L414.379 306.304C410.194 304.209 408.477 299.135 410.53 294.929C411.527 292.894 413.293 291.339 415.439 290.607C417.584 289.876 419.932 290.028 421.965 291.029L448.836 304.461L449.092 304.597L456.004 308.011C457.576 308.81 458.87 310.065 459.716 311.612L478.694 342.656C489.336 360.095 494.956 380.134 494.933 400.563V452.267Z" fill="#5C524B"/>
</svg>
