<svg width="512" height="512" viewBox="0 0 512 512" fill="none" xmlns="http://www.w3.org/2000/svg">
<g clip-path="url(#clip0)">
<path d="M477.867 320H422.34L368.725 250.3L344.713 219.085C339.849 212.788 332.351 209.091 324.395 209.067H324.267V140.8C324.267 131.374 316.626 123.733 307.2 123.733H290.133V29.8667C290.133 20.4411 282.492 12.8 273.067 12.8H187.733C178.308 12.8 170.667 20.4411 170.667 29.8667V106.667H136.533C127.108 106.667 119.467 114.308 119.467 123.733V209.067C119.473 211.268 119.904 213.447 120.738 215.484C118.79 217.146 117.102 219.091 115.729 221.252L54.9632 320H34.1333C15.282 320 0 335.282 0 354.133V413.867C0 428.005 11.4615 439.467 25.6 439.467H59.7333C59.7312 455.536 66.2249 470.924 77.7387 482.133H59.7333C55.0205 482.133 51.2 485.954 51.2 490.667C51.2 495.38 55.0205 499.2 59.7333 499.2H119.467C152.441 499.162 179.162 472.441 179.2 439.467H315.733C315.731 455.536 322.225 470.924 333.739 482.133H315.733C311.021 482.133 307.2 485.954 307.2 490.667C307.2 495.38 311.021 499.2 315.733 499.2H375.467C408.441 499.162 435.162 472.441 435.2 439.467H486.4C500.539 439.467 512 428.005 512 413.867V354.133C512 335.282 496.718 320 477.867 320ZM477.867 337.067C487.292 337.067 494.933 344.708 494.933 354.133H460.8V337.067H477.867ZM324.395 226.133C324.905 226.202 325.408 226.32 325.897 226.483L293.205 253.705C289.581 256.721 289.088 262.104 292.105 265.728C295.121 269.352 300.504 269.845 304.128 266.829L338.125 238.515L350.379 254.447L310.272 287.838C307.928 289.789 306.802 292.843 307.32 295.849C307.837 298.855 309.919 301.356 312.781 302.411C315.643 303.466 318.85 302.913 321.195 300.962L360.789 267.989L400.802 320H264.533V226.133H324.395ZM145.067 320V226.133H247.467V320H145.067ZM307.2 209.067H238.933V140.8H264.533V157.867C264.533 162.58 268.354 166.4 273.067 166.4C277.78 166.4 281.6 162.58 281.6 157.867V140.8H307.2V209.067ZM238.933 29.8667V58.7265L234.214 56.3627C231.813 55.1627 228.987 55.1627 226.586 56.3627L221.867 58.7265V29.8667H238.933ZM187.733 29.8667H204.8V72.5334C204.799 75.4912 206.329 78.2388 208.845 79.7947C211.36 81.3506 214.502 81.4929 217.148 80.1707L230.4 73.5403L243.652 80.1707C246.298 81.4929 249.44 81.3506 251.955 79.7947C254.471 78.2388 256.001 75.4912 256 72.5334V29.8667H273.067V123.733H238.933C238.933 114.308 231.292 106.667 221.867 106.667H187.733V29.8667ZM187.733 123.733V152.593L183.014 150.229C180.613 149.029 177.787 149.029 175.386 150.229L170.667 152.593V123.733H187.733ZM136.533 123.733H153.6V166.4C153.599 169.358 155.129 172.105 157.645 173.661C160.16 175.217 163.302 175.36 165.948 174.037L179.2 167.407L192.452 174.037C195.098 175.36 198.24 175.217 200.755 173.661C203.271 172.105 204.801 169.358 204.8 166.4V123.733H221.867V209.067H136.533V123.733ZM128 233.882V320H75.008L128 233.882ZM34.1333 337.067V354.133H17.0667C17.0667 344.708 24.7077 337.067 34.1333 337.067ZM119.467 482.133C95.9025 482.133 76.8 463.031 76.8 439.467C76.8 415.903 95.9025 396.8 119.467 396.8C143.031 396.8 162.133 415.903 162.133 439.467C162.105 463.019 143.019 482.105 119.467 482.133ZM375.467 482.133C351.903 482.133 332.8 463.031 332.8 439.467C332.8 415.903 351.903 396.8 375.467 396.8C399.031 396.8 418.133 415.903 418.133 439.467C418.105 463.019 399.019 482.105 375.467 482.133ZM486.4 422.4H432.64C425.015 397.202 401.793 379.966 375.467 379.966C349.14 379.966 325.918 397.202 318.293 422.4H264.533V362.667C264.533 357.954 260.713 354.133 256 354.133C251.287 354.133 247.467 357.954 247.467 362.667V422.4H176.64C169.015 397.202 145.793 379.966 119.467 379.966C93.1403 379.966 69.9179 397.202 62.2933 422.4H25.6C20.8872 422.4 17.0667 418.58 17.0667 413.867V405.333H25.6C30.3128 405.333 34.1333 401.513 34.1333 396.8C34.1333 392.087 30.3128 388.267 25.6 388.267H17.0667V371.2H34.1333C43.559 371.2 51.2 363.559 51.2 354.133V337.067H443.733V354.133C443.733 363.559 451.374 371.2 460.8 371.2H494.933V388.267H477.867C473.154 388.267 469.333 392.087 469.333 396.8C469.333 401.513 473.154 405.333 477.867 405.333H494.933V413.867C494.933 418.58 491.113 422.4 486.4 422.4Z" fill="#5C524B"/>
<path d="M119.467 413.867C105.328 413.867 93.8667 425.328 93.8667 439.467C93.8667 453.605 105.328 465.067 119.467 465.067C133.605 465.067 145.067 453.605 145.067 439.467C145.067 425.328 133.605 413.867 119.467 413.867ZM119.467 448C114.754 448 110.933 444.18 110.933 439.467C110.933 434.754 114.754 430.933 119.467 430.933C124.18 430.933 128 434.754 128 439.467C128 444.18 124.18 448 119.467 448Z" fill="#5C524B"/>
<path d="M375.467 413.867C361.328 413.867 349.867 425.328 349.867 439.467C349.867 453.605 361.328 465.067 375.467 465.067C389.605 465.067 401.067 453.605 401.067 439.467C401.067 425.328 389.605 413.867 375.467 413.867ZM375.467 448C370.754 448 366.933 444.18 366.933 439.467C366.933 434.754 370.754 430.933 375.467 430.933C380.18 430.933 384 434.754 384 439.467C384 444.18 380.18 448 375.467 448Z" fill="#5C524B"/>
<path d="M25.6001 499.2C30.3129 499.2 34.1334 495.379 34.1334 490.667C34.1334 485.954 30.3129 482.133 25.6001 482.133H17.0668C12.354 482.133 8.53345 485.954 8.53345 490.667C8.53345 495.379 12.354 499.2 17.0668 499.2H25.6001Z" fill="#5C524B"/>
<path d="M281.6 499.2C286.313 499.2 290.133 495.379 290.133 490.667C290.133 485.954 286.313 482.133 281.6 482.133H273.067C268.354 482.133 264.533 485.954 264.533 490.667C264.533 495.379 268.354 499.2 273.067 499.2H281.6Z" fill="#5C524B"/>
</g>
<defs>
<clipPath id="clip0">
<rect width="512" height="512" fill="white"/>
</clipPath>
</defs>
</svg>
